<?xml version="1.0" standalone="no"?>
<!DOCTYPE svg PUBLIC "-//W3C//DTD SVG 20010904//EN"
 "http://www.w3.org/TR/2001/REC-SVG-20010904/DTD/svg10.dtd">
<svg version="1.0" xmlns="http://www.w3.org/2000/svg"
 width="1280.000000pt" height="831.000000pt" viewBox="0 0 1280.000000 831.000000"
 preserveAspectRatio="xMidYMid meet">
<metadata>
Created by potrace 1.15, written by Peter Selinger 2001-2017
</metadata>
<g transform="translate(0.000000,831.000000) scale(0.100000,-0.100000)"
fill="#000000" stroke="none">
<path d="M1410 8295 c-88 -20 -175 -65 -175 -90 0 -17 17 -24 120 -48 65 -15
125 -33 132 -39 19 -16 16 -39 -11 -78 -20 -30 -32 -36 -84 -45 -60 -11 -63
-11 -129 22 -158 77 -359 121 -500 109 -77 -6 -203 -34 -203 -45 0 -3 60 -19
133 -35 138 -29 159 -39 195 -92 12 -17 37 -42 56 -55 20 -13 36 -28 36 -33 0
-4 -23 -38 -52 -75 -29 -36 -53 -67 -54 -69 -1 -2 -96 24 -210 58 -245 73
-260 73 -303 4 -57 -89 -18 -149 229 -362 l35 -30 -25 -48 c-13 -27 -25 -71
-28 -99 -4 -53 4 -71 68 -173 l33 -52 -25 -59 c-59 -135 -165 -294 -429 -643
-63 -84 -139 -187 -167 -230 l-51 -76 37 -20 c49 -25 93 -85 170 -230 74 -139
121 -191 184 -203 75 -14 156 -10 206 10 35 15 80 21 182 24 154 6 219 22 282
70 46 35 101 132 113 200 6 34 9 37 40 37 21 0 78 -23 156 -62 122 -63 123
-63 203 -62 87 2 223 30 296 62 25 11 98 52 164 91 136 82 174 86 131 11 -19
-33 -19 -65 1 -81 9 -7 58 -72 109 -144 98 -138 163 -205 237 -245 42 -22 49
-32 124 -184 l79 -161 72 -3 71 -3 88 -117 88 -117 7 -76 c8 -92 28 -139 120
-286 80 -127 106 -188 115 -269 10 -84 93 -262 136 -292 61 -42 136 -123 186
-200 27 -42 75 -117 106 -166 73 -114 118 -167 182 -216 28 -22 57 -51 64 -66
37 -68 308 -150 540 -163 l115 -6 18 -36 c12 -25 27 -130 53 -360 35 -323 35
-324 64 -354 55 -58 115 -207 139 -350 6 -33 18 -148 26 -255 15 -177 35 -319
65 -455 24 -106 -12 -292 -78 -404 -15 -25 -45 -69 -68 -96 -35 -44 -42 -59
-46 -111 -7 -75 -27 -115 -118 -235 -73 -96 -110 -157 -110 -182 0 -10 15 -16
45 -20 55 -6 63 -12 47 -37 -25 -41 -3 -70 53 -70 29 0 226 62 301 95 63 28
121 78 139 121 10 25 20 34 37 34 33 0 85 35 102 69 22 41 56 192 56 245 0 57
19 107 73 197 101 167 108 198 78 313 -12 44 -21 95 -21 114 0 28 -10 45 -46
84 -33 35 -44 54 -39 66 22 53 27 110 16 213 -8 77 -9 127 -1 174 6 37 10 206
9 393 -1 192 3 360 10 406 14 99 51 240 61 229 4 -4 29 -71 55 -148 32 -93 63
-162 91 -205 53 -79 88 -177 108 -307 9 -54 25 -154 35 -222 19 -119 21 -125
58 -163 l38 -39 -1 -242 c0 -245 -7 -334 -46 -575 l-21 -133 -110 -77 c-61
-42 -111 -81 -111 -87 -1 -5 14 -11 32 -13 27 -3 36 -9 44 -33 13 -39 35 -49
106 -49 46 0 72 7 113 28 94 50 253 149 276 174 12 12 45 84 73 158 l52 135
-16 100 c-37 233 -40 293 -36 715 10 898 4 1070 -49 1325 -11 50 -19 91 -18
91 1 1 46 21 99 44 l97 42 68 -12 c37 -7 139 -32 226 -56 245 -68 338 -84 480
-84 74 0 176 -8 253 -20 154 -24 243 -25 319 -5 31 8 109 17 173 20 140 8 211
19 256 40 33 16 36 15 87 -14 105 -58 272 -81 472 -66 94 7 98 8 112 36 25 48
16 52 335 -150 225 -143 405 -223 564 -252 l62 -12 28 -159 c14 -88 34 -171
42 -184 23 -35 76 -64 116 -64 69 0 111 66 148 230 12 52 29 113 39 136 l19
41 118 5 c165 7 163 9 189 -124 18 -96 24 -112 59 -154 73 -86 79 -118 84
-384 3 -177 0 -266 -12 -360 -20 -152 -64 -353 -107 -486 -17 -55 -38 -127
-45 -162 -17 -83 -71 -182 -153 -284 -37 -46 -90 -112 -119 -147 -29 -36 -52
-75 -52 -87 0 -29 64 -110 101 -130 42 -21 90 -12 217 42 57 24 113 44 124 44
11 0 38 10 59 22 38 21 39 24 104 219 l66 197 67 20 c37 11 92 28 122 36 53
15 57 19 83 72 l27 55 -20 80 c-51 197 -65 469 -35 659 32 202 140 462 217
524 36 28 39 28 56 12 19 -17 42 -78 42 -112 0 -11 15 -48 33 -84 l32 -65 -1
-325 c0 -397 -4 -437 -122 -1251 l-49 -335 -48 -59 c-61 -75 -105 -168 -112
-238 l-6 -54 53 -13 c67 -16 156 -7 261 26 77 24 82 28 126 87 55 74 82 131
83 172 0 17 5 37 10 45 8 12 13 11 33 -8 40 -38 65 -26 99 49 13 28 14 46 6
89 -12 69 3 156 39 230 l28 55 59 3 59 3 -7 117 c-11 211 -9 395 4 481 8 54
11 131 7 220 -5 131 -12 177 -99 636 -32 165 -32 428 0 544 22 82 22 86 8 185
-9 55 -23 180 -31 276 -29 332 -51 417 -139 549 -114 169 -166 317 -192 539
-19 165 -10 240 45 362 22 47 58 137 81 200 51 137 141 353 180 430 l27 55 11
426 c6 234 14 433 18 442 3 9 14 17 24 17 14 0 28 -31 68 -152 123 -375 183
-666 322 -1558 55 -355 92 -566 145 -820 36 -174 86 -532 85 -613 0 -33 -7
-57 -21 -76 -19 -26 -21 -42 -21 -153 1 -126 10 -179 57 -342 40 -136 70 -201
117 -245 50 -47 69 -50 97 -15 11 14 39 39 62 56 l41 30 -7 111 c-6 101 -9
115 -32 139 -26 27 -26 28 -17 130 5 57 9 148 9 203 0 89 -3 106 -29 160 -48
101 -56 147 -55 310 0 139 -8 205 -106 890 -165 1151 -198 1360 -295 1845 -32
162 -71 369 -85 460 -78 491 -153 683 -329 847 -78 73 -118 98 -268 165 -322
142 -513 211 -678 242 -70 14 -76 13 -101 -5 -15 -10 -30 -19 -34 -19 -4 0
-39 15 -78 34 -92 44 -230 72 -421 85 -143 10 -152 9 -245 -15 -70 -18 -118
-24 -176 -23 -67 2 -107 -5 -250 -43 -93 -25 -195 -55 -225 -67 -48 -18 -76
-21 -216 -21 -192 0 -335 -13 -441 -41 -130 -34 -1122 -129 -1823 -175 -183
-12 -423 -18 -845 -20 -546 -2 -600 -4 -725 -23 -113 -18 -207 -23 -575 -31
-457 -9 -568 -17 -745 -51 l-106 -20 -664 101 c-366 56 -677 106 -692 112 -15
5 -29 16 -32 24 -7 17 47 80 84 99 41 21 63 76 58 146 -2 33 -9 64 -15 70 -37
37 -326 61 -474 40 -115 -16 -218 -45 -306 -86 -57 -26 -79 -32 -93 -25 -18
10 -18 13 6 66 34 77 26 124 -37 224 -36 56 -59 81 -86 94 -51 24 -162 29
-243 11z"/>
</g>
</svg>
